<?xml version="1.0" encoding="UTF-8" standalone="no"?>
<svg
   xmlns:dc="http://purl.org/dc/elements/1.1/"
   xmlns:cc="http://creativecommons.org/ns#"
   xmlns:rdf="http://www.w3.org/1999/02/22-rdf-syntax-ns#"
   xmlns:svg="http://www.w3.org/2000/svg"
   xmlns="http://www.w3.org/2000/svg"
   viewBox="0 0 540.46387 146.85155"
   height="146.85155"
   width="540.46387"
   xml:space="preserve"
   version="1.1"
   id="svg2"><metadata
     id="metadata8"><rdf:RDF><cc:Work
         rdf:about=""><dc:format>image/svg+xml</dc:format><dc:type
           rdf:resource="http://purl.org/dc/dcmitype/StillImage" /><dc:title></dc:title></cc:Work></rdf:RDF></metadata><defs
     id="defs6"><clipPath
       id="clipPath18"
       clipPathUnits="userSpaceOnUse"><path
         id="path20"
         d="m 0,0 841.89,0 0,595.28 L 0,595.28 0,0 Z" /></clipPath></defs><g
     transform="matrix(1.25,0,0,-1.25,-412.36937,255.3945)"
     id="g10"><g
       id="g12" /><g
       id="g14"><path
         d="m 426.2578,181.292 c 5.117,0 9.75,-2.074 13.102,-5.428 l 13.101,13.102 c -6.707,6.707 -15.971,10.853 -26.203,10.853 -20.464,0 -37.055,-16.59 -37.055,-37.056 l 0,-18.526 -5.426,5.426 c -3.352,-3.353 -7.986,-5.426 -13.101,-5.426 -10.232,0 -18.528,8.295 -18.528,18.526 0,10.234 8.296,18.529 18.528,18.529 5.115,0 9.748,-2.074 13.101,-5.428 l 13.102,13.102 c -6.705,6.707 -15.971,10.853 -26.203,10.853 -20.465,0 -37.056,-16.59 -37.056,-37.056 0,-20.463 16.591,-37.055 37.056,-37.055 6.757,0 13.074,1.838 18.527,4.998 l 0,-38.965 18.528,0 0,18.53 c 0,10.23 8.296,18.527 18.527,18.527 l 8.029,0 0,15.439 -8.029,0 c -10.231,0 -18.527,8.295 -18.527,18.526 0,10.234 8.296,18.529 18.527,18.529"
         style="fill:#ffffff;fill-opacity:1;fill-rule:nonzero;stroke:none"
         id="path174" /><path
         d="m 519.0605,130.9229 c 3.715,0 4.822,3.176 4.822,6.316 0,3.176 -1.107,6.354 -4.822,6.354 -3.676,0 -4.785,-3.178 -4.785,-6.354 0,-3.14 1.109,-6.316 4.785,-6.316 m 0,16.766 c 6.24,0 10.258,-4.135 10.258,-10.45 0,-6.277 -4.018,-10.412 -10.258,-10.412 -6.201,0 -10.221,4.135 -10.221,10.412 0,6.315 4.02,10.45 10.221,10.45"
         style="fill:#ffffff;fill-opacity:1;fill-rule:nonzero;stroke:none"
         id="path176" /><path
         d="m 551.2109,127.3643 -5.168,0 0,2.754 -0.113,0 c -1.377,-2.219 -3.752,-3.291 -6.049,-3.291 -5.779,0 -7.232,3.254 -7.232,8.154 l 0,12.172 5.433,0 0,-11.176 c 0,-3.256 0.959,-4.863 3.484,-4.863 2.948,0 4.211,1.646 4.211,5.666 l 0,10.373 5.434,0 0,-19.789 z"
         style="fill:#ffffff;fill-opacity:1;fill-rule:nonzero;stroke:none"
         id="path178" /><path
         d="m 555.1523,147.1533 5.168,0 0,-2.758 0.115,0 c 1.377,2.221 3.75,3.293 6.047,3.293 5.781,0 7.236,-3.256 7.236,-8.154 l 0,-12.17 -5.435,0 0,11.176 c 0,3.256 -0.957,4.861 -3.486,4.861 -2.944,0 -4.209,-1.644 -4.209,-5.664 l 0,-10.373 -5.436,0 0,19.789 z"
         style="fill:#ffffff;fill-opacity:1;fill-rule:nonzero;stroke:none"
         id="path180" /><path
         d="m 587.0371,143.5928 c -3.561,0 -4.787,-3.063 -4.787,-6.314 0,-3.102 1.42,-6.356 4.787,-6.356 3.598,0 4.668,3.139 4.668,6.393 0,3.214 -1.148,6.277 -4.668,6.277 m 4.744,-13.705 -0.076,0 c -1.264,-2.143 -3.482,-3.061 -6.008,-3.061 -5.972,0 -8.883,5.129 -8.883,10.604 0,5.32 2.95,10.258 8.766,10.258 2.338,0 4.633,-0.996 5.857,-2.948 l 0.077,0 0,9.952 5.435,0 0,-27.329 -5.168,0 0,2.524 z"
         style="fill:#ffffff;fill-opacity:1;fill-rule:nonzero;stroke:none"
         id="path182" /><path
         d="m 613.1797,137.0479 c -0.92,-0.805 -2.834,-0.842 -4.516,-1.148 -1.687,-0.346 -3.218,-0.918 -3.218,-2.911 0,-2.027 1.57,-2.523 3.33,-2.523 4.25,0 4.404,3.367 4.404,4.555 l 0,2.027 z m -12.557,4.018 c 0.309,5.093 4.862,6.623 9.301,6.623 3.942,0 8.692,-0.881 8.692,-5.627 l 0,-10.297 c 0,-1.797 0.189,-3.6 0.687,-4.401 l -5.512,0 c -0.189,0.614 -0.343,1.26 -0.382,1.913 -1.721,-1.797 -4.249,-2.45 -6.661,-2.45 -3.752,0 -6.738,1.875 -6.738,5.934 0,4.478 3.369,5.551 6.738,6.01 3.328,0.498 6.432,0.382 6.432,2.603 0,2.334 -1.609,2.676 -3.521,2.676 -2.067,0 -3.407,-0.84 -3.6,-2.984 l -5.436,0 z"
         style="fill:#ffffff;fill-opacity:1;fill-rule:nonzero;stroke:none"
         id="path184" /><path
         d="m 629.5234,147.1533 3.979,0 0,-3.637 -3.979,0 0,-9.799 c 0,-1.837 0.457,-2.296 2.295,-2.296 0.576,0 1.111,0.039 1.684,0.152 l 0,-4.246 c -0.92,-0.156 -2.104,-0.194 -3.178,-0.194 -3.328,0 -6.238,0.766 -6.238,4.709 l 0,11.674 -3.292,0 0,3.637 3.292,0 0,5.932 5.437,0 0,-5.932 z"
         style="fill:#ffffff;fill-opacity:1;fill-rule:nonzero;stroke:none"
         id="path186" /><path
         d="m 636.268,150.216 5.436,0 0,4.477 -5.436,0 0,-4.477 z"
         style="fill:#ffffff;fill-opacity:1;fill-rule:nonzero;stroke:none"
         id="path188" /><path
         d="m 489.2637,154.6924 0,-27.328 5.436,0 0,11.291 10.937,0 0,4.67 -10.937,0 0,6.699 12.695,0 0,4.668 -18.131,0 z"
         style="fill:#ffffff;fill-opacity:1;fill-rule:nonzero;stroke:none"
         id="path190" /><path
         d="m 636.268,127.364 5.436,0 0,19.789 -5.436,0 0,-19.789 z"
         style="fill:#ffffff;fill-opacity:1;fill-rule:nonzero;stroke:none"
         id="path192" /><path
         d="m 655.4082,130.9229 c 3.711,0 4.822,3.176 4.822,6.316 0,3.176 -1.111,6.354 -4.822,6.354 -3.676,0 -4.785,-3.178 -4.785,-6.354 0,-3.14 1.109,-6.316 4.785,-6.316 m 0,16.766 c 6.238,0 10.258,-4.135 10.258,-10.45 0,-6.277 -4.02,-10.412 -10.258,-10.412 -6.201,0 -10.221,4.135 -10.221,10.412 0,6.315 4.02,10.45 10.221,10.45"
         style="fill:#ffffff;fill-opacity:1;fill-rule:nonzero;stroke:none"
         id="path194" /><path
         d="m 668.9941,147.1533 5.17,0 0,-2.758 0.109,0 c 1.385,2.221 3.756,3.293 6.051,3.293 5.777,0 7.232,-3.256 7.232,-8.154 l 0,-12.17 -5.435,0 0,11.176 c 0,3.256 -0.955,4.861 -3.482,4.861 -2.948,0 -4.209,-1.644 -4.209,-5.664 l 0,-10.373 -5.436,0 0,19.789 z"
         style="fill:#ffffff;fill-opacity:1;fill-rule:nonzero;stroke:none"
         id="path196" /><path
         d="m 517.4414,200.4658 5.436,0 0,-10.297 0.113,0 c 1.379,2.221 3.752,3.293 5.779,3.293 5.781,0 7.236,-3.254 7.236,-8.154 l 0,-12.17 -5.435,0 0,11.176 c 0,3.254 -0.957,4.861 -3.483,4.861 -2.947,0 -4.21,-1.647 -4.21,-5.664 l 0,-10.373 -5.436,0 0,27.328 z"
         style="fill:#ffffff;fill-opacity:1;fill-rule:nonzero;stroke:none"
         id="path198" /><path
         d="m 552.2715,182.8213 c -0.918,-0.805 -2.832,-0.844 -4.518,-1.148 -1.683,-0.346 -3.214,-0.918 -3.214,-2.911 0,-2.027 1.57,-2.523 3.332,-2.523 4.246,0 4.4,3.367 4.4,4.553 l 0,2.029 z m -12.553,4.021 c 0.305,5.09 4.86,6.62 9.301,6.62 3.941,0 8.688,-0.881 8.688,-5.627 l 0,-10.297 c 0,-1.797 0.191,-3.596 0.689,-4.401 l -5.512,0 c -0.191,0.614 -0.343,1.264 -0.383,1.913 -1.72,-1.797 -4.25,-2.45 -6.658,-2.45 -3.754,0 -6.74,1.875 -6.74,5.934 0,4.476 3.371,5.549 6.74,6.008 3.328,0.498 6.428,0.384 6.428,2.605 0,2.334 -1.605,2.678 -3.52,2.678 -2.066,0 -3.408,-0.842 -3.599,-2.983 l -5.434,0 z"
         style="fill:#ffffff;fill-opacity:1;fill-rule:nonzero;stroke:none"
         id="path200" /><path
         d="m 561.8789,192.9248 5.129,0 0,-2.678 0.078,0 c 1.416,2.028 3.482,3.215 6.045,3.215 2.49,0 4.709,-0.918 5.781,-3.293 1.149,1.725 3.215,3.293 5.971,3.293 4.211,0 7.234,-1.953 7.234,-7.08 l 0,-13.244 -5.435,0 0,11.215 c 0,2.64 -0.231,4.822 -3.33,4.822 -3.063,0 -3.637,-2.525 -3.637,-5.014 l 0,-11.023 -5.434,0 0,11.099 c 0,2.297 0.151,4.938 -3.293,4.938 -1.074,0 -3.673,-0.687 -3.673,-4.555 l 0,-11.482 -5.436,0 0,19.787 z"
         style="fill:#ffffff;fill-opacity:1;fill-rule:nonzero;stroke:none"
         id="path202" /><path
         d="m 610.9102,182.9736 c 0,3.141 -1.264,6.393 -4.746,6.393 -3.559,0 -4.709,-3.176 -4.709,-6.393 0,-3.215 1.226,-6.277 4.746,-6.277 3.561,0 4.709,3.062 4.709,6.277 m -14.699,9.951 5.168,0 0,-2.525 0.076,0 c 1.301,2.105 3.447,3.062 5.896,3.062 6.202,0 8.995,-5.013 8.995,-10.64 0,-5.284 -2.911,-10.221 -8.69,-10.221 -2.373,0 -4.631,1.035 -5.932,2.988 l -0.078,0 0,-9.418 -5.435,0 0,26.754 z"
         style="fill:#ffffff;fill-opacity:1;fill-rule:nonzero;stroke:none"
         id="path204" /><path
         d="m 631.8848,182.8213 c -0.92,-0.805 -2.834,-0.844 -4.516,-1.148 -1.685,-0.346 -3.216,-0.918 -3.216,-2.911 0,-2.027 1.57,-2.523 3.33,-2.523 4.25,0 4.402,3.367 4.402,4.553 l 0,2.029 z m -12.555,4.021 c 0.307,5.09 4.862,6.62 9.301,6.62 3.941,0 8.688,-0.881 8.688,-5.627 l 0,-10.297 c 0,-1.797 0.191,-3.596 0.689,-4.401 l -5.512,0 c -0.189,0.614 -0.343,1.264 -0.382,1.913 -1.721,-1.797 -4.247,-2.45 -6.659,-2.45 -3.752,0 -6.738,1.875 -6.738,5.934 0,4.476 3.369,5.549 6.738,6.008 3.33,0.498 6.43,0.384 6.43,2.605 0,2.334 -1.609,2.678 -3.521,2.678 -2.067,0 -3.407,-0.842 -3.6,-2.983 l -5.434,0 z"
         style="fill:#ffffff;fill-opacity:1;fill-rule:nonzero;stroke:none"
         id="path206" /><path
         d="m 641.49,173.138 5.436,0 0,27.328 -5.436,0 0,-27.328 z"
         style="fill:#ffffff;fill-opacity:1;fill-rule:nonzero;stroke:none"
         id="path208" /><path
         d="m 651.176,192.925 5.434,0 0,-19.787 -5.434,0 0,19.787 z m 5.433,3.062 -5.434,0 0,4.479 5.434,0 0,-4.479 z"
         style="fill:#ffffff;fill-opacity:1;fill-rule:nonzero;stroke:none"
         id="path210" /><path
         d="m 660.8574,192.9248 5.129,0 0,-2.678 0.078,0 c 1.416,2.028 3.481,3.215 6.045,3.215 2.488,0 4.709,-0.918 5.781,-3.293 1.149,1.725 3.215,3.293 5.971,3.293 4.211,0 7.234,-1.953 7.234,-7.08 l 0,-13.244 -5.435,0 0,11.215 c 0,2.64 -0.229,4.822 -3.328,4.822 -3.063,0 -3.637,-2.525 -3.637,-5.014 l 0,-11.023 -5.438,0 0,11.099 c 0,2.297 0.157,4.938 -3.289,4.938 -1.07,0 -3.675,-0.687 -3.675,-4.555 l 0,-11.482 -5.436,0 0,19.787 z"
         style="fill:#ffffff;fill-opacity:1;fill-rule:nonzero;stroke:none"
         id="path212" /><path
         d="m 707.5156,182.8213 c -0.918,-0.805 -2.832,-0.844 -4.514,-1.148 -1.687,-0.346 -3.216,-0.918 -3.216,-2.911 0,-2.027 1.566,-2.523 3.328,-2.523 4.25,0 4.402,3.367 4.402,4.553 l 0,2.029 z m -12.555,4.021 c 0.307,5.09 4.862,6.62 9.303,6.62 3.939,0 8.686,-0.881 8.686,-5.627 l 0,-10.297 c 0,-1.797 0.191,-3.596 0.689,-4.401 l -5.512,0 c -0.189,0.614 -0.343,1.264 -0.381,1.913 -1.722,-1.797 -4.248,-2.45 -6.66,-2.45 -3.752,0 -6.738,1.875 -6.738,5.934 0,4.476 3.367,5.549 6.738,6.008 3.33,0.498 6.43,0.384 6.43,2.605 0,2.334 -1.607,2.678 -3.52,2.678 -2.068,0 -3.41,-0.842 -3.599,-2.983 l -5.436,0 z"
         style="fill:#ffffff;fill-opacity:1;fill-rule:nonzero;stroke:none"
         id="path214" /><path
         d="m 735.5352,173.1377 -5.17,0 0,2.756 -0.113,0 c -1.379,-2.219 -3.752,-3.293 -6.047,-3.293 -5.781,0 -7.238,3.254 -7.238,8.154 l 0,12.17 5.439,0 0,-11.176 c 0,-3.254 0.955,-4.859 3.481,-4.859 2.949,0 4.211,1.644 4.211,5.662 l 0,10.373 5.437,0 0,-19.787 z"
         style="fill:#ffffff;fill-opacity:1;fill-rule:nonzero;stroke:none"
         id="path216" /><path
         d="m 748.9023,189.3662 c -3.561,0 -4.783,-3.061 -4.783,-6.316 0,-3.1 1.416,-6.354 4.783,-6.354 3.602,0 4.672,3.139 4.672,6.395 0,3.214 -1.149,6.275 -4.672,6.275 m 4.75,-13.703 -0.078,0 c -1.264,-2.145 -3.485,-3.063 -6.01,-3.063 -5.973,0 -8.879,5.129 -8.879,10.604 0,5.32 2.946,10.258 8.764,10.258 2.336,0 4.631,-0.994 5.855,-2.948 l 0.077,0 0,9.952 5.435,0 0,-27.329 -5.164,0 0,2.526 z"
         style="fill:#ffffff;fill-opacity:1;fill-rule:nonzero;stroke:none"
         id="path218" /><path
         d="m 508.625,183.6885 c -0.676,-3.553 -2.494,-6.395 -6.785,-6.395 -5.459,0 -7.01,4.665 -7.01,9.389 0,4.963 1.551,9.625 7.01,9.625 3.711,0 5.523,-2.099 6.435,-5.064 l 5.504,0 c -0.722,6.265 -5.478,9.757 -11.443,9.757 -8.391,0 -13.072,-6.265 -13.072,-14.312 0,-7.822 4.681,-14.088 13.072,-14.088 6.646,0 11.06,4.328 11.672,11.088 l -5.383,0 z"
         style="fill:#ffffff;fill-opacity:1;fill-rule:nonzero;stroke:none"
         id="path220" /></g></g></svg>