<?xml version="1.0" encoding="UTF-8" standalone="no"?>
<svg
   xmlns:dc="http://purl.org/dc/elements/1.1/"
   xmlns:cc="http://creativecommons.org/ns#"
   xmlns:rdf="http://www.w3.org/1999/02/22-rdf-syntax-ns#"
   xmlns:svg="http://www.w3.org/2000/svg"
   xmlns="http://www.w3.org/2000/svg"
   xmlns:sodipodi="http://sodipodi.sourceforge.net/DTD/sodipodi-0.dtd"
   xmlns:inkscape="http://www.inkscape.org/namespaces/inkscape"
   sodipodi:docname="geneo.svg"
   inkscape:version="1.0beta1 (7d29e37a2a, 2019-11-05)"
   id="svg4221"
   version="1.1"
   viewBox="0 0 264.40576 117.95335"
   height="117.95335mm"
   width="264.40576mm">
  <defs
     id="defs4215">
    <clipPath
       clipPathUnits="userSpaceOnUse"
       id="clipPath3086">
      <path
         d="M 0,0 H 1920 V 1080 H 0 Z"
         id="path3084"
         inkscape:connector-curvature="0" />
    </clipPath>
  </defs>
  <sodipodi:namedview
     fit-margin-bottom="0"
     fit-margin-right="0"
     fit-margin-left="0"
     fit-margin-top="0"
     showgrid="false"
     inkscape:document-rotation="0"
     inkscape:current-layer="layer1"
     inkscape:document-units="mm"
     inkscape:cy="560"
     inkscape:cx="400"
     inkscape:zoom="0.35"
     inkscape:pageshadow="2"
     inkscape:pageopacity="0.0"
     borderopacity="1.0"
     bordercolor="#666666"
     pagecolor="#ffffff"
     id="base" />
  <metadata
     id="metadata4218">
    <rdf:RDF>
      <cc:Work
         rdf:about="">
        <dc:format>image/svg+xml</dc:format>
        <dc:type
           rdf:resource="http://purl.org/dc/dcmitype/StillImage" />
        <dc:title></dc:title>
      </cc:Work>
    </rdf:RDF>
  </metadata>
  <g
     transform="translate(-125.43109,-37.390891)"
     id="layer1"
     inkscape:groupmode="layer"
     inkscape:label="Layer 1">
    <g
       id="g3088"
       transform="matrix(0.35277777,0,0,-0.35277777,-180.70946,13.505021)" />
    <g
       id="g3186"
       transform="matrix(0.35277777,0,0,-0.35277777,5.5385071,147.67561)">
      <text
         transform="matrix(1,0,0,-1,36.348,50.70032)"
         style="font-variant:normal;font-weight:normal;font-size:12px;font-family:Helvetica;-inkscape-font-specification:Helvetica;writing-mode:lr-tb;fill:#000000;fill-opacity:1;fill-rule:nonzero;stroke:none"
         id="text3190"><tspan
           x="0"
           y="0"
           id="tspan3188" /></text>
    </g>
    <g
       id="g3204"
       transform="matrix(0.35277777,0,0,-0.35277777,5.1532738,89.7597)">
      <text
         transform="matrix(1,0,0,-1,41.236,50.70032)"
         style="font-variant:normal;font-weight:normal;font-size:12px;font-family:Helvetica;-inkscape-font-specification:Helvetica;writing-mode:lr-tb;fill:#000000;fill-opacity:1;fill-rule:nonzero;stroke:none"
         id="text3208"><tspan
           x="0"
           y="0"
           id="tspan3206" /></text>
    </g>
    <g
       id="g3218"
       transform="matrix(0.35277777,0,0,-0.35277777,124.55056,119.22486)">
      <text
         transform="matrix(1,0,0,-1,0,50.70032)"
         style="font-variant:normal;font-weight:normal;font-size:52px;font-family:STIXGeneral;-inkscape-font-specification:STIXGeneral-Regular;writing-mode:lr-tb;fill:#000000;fill-opacity:1;fill-rule:nonzero;stroke:none"
         id="text3222"><tspan
           x="0"
           y="0"
           id="tspan3220">(</tspan></text>
    </g>
    <g
       id="g3224"
       transform="matrix(0.35277777,0,0,-0.35277777,124.55056,119.22486)">
      <text
         transform="matrix(1,0,0,-1,17.316,50.70032)"
         style="font-variant:normal;font-weight:normal;font-size:52px;font-family:STIXGeneral;-inkscape-font-specification:STIXGeneral-Regular;writing-mode:lr-tb;fill:#000000;fill-opacity:1;fill-rule:nonzero;stroke:none"
         id="text3228"><tspan
           x="0"
           y="0"
           id="tspan3226">Φ</tspan></text>
    </g>
    <g
       id="g3230"
       transform="matrix(0.35277777,0,0,-0.35277777,124.55056,119.22486)">
      <text
         transform="matrix(1,0,0,-1,56.992,50.70032)"
         style="font-variant:normal;font-weight:normal;font-size:52px;font-family:STIXGeneral;-inkscape-font-specification:STIXGeneral-Regular;writing-mode:lr-tb;fill:#000000;fill-opacity:1;fill-rule:nonzero;stroke:none"
         id="text3234"><tspan
           x="0"
           y="0"
           id="tspan3232">,</tspan></text>
    </g>
    <g
       id="g3236"
       transform="matrix(0.35277777,0,0,-0.35277777,124.55056,119.22486)">
      <text
         transform="matrix(1,0,0,-1,78.65867,50.70032)"
         style="font-style:italic;font-variant:normal;font-size:52px;font-family:STIXGeneral;-inkscape-font-specification:STIXGeneral-Italic;writing-mode:lr-tb;fill:#000000;fill-opacity:1;fill-rule:nonzero;stroke:none"
         id="text3240"><tspan
           x="0"
           y="0"
           id="tspan3238">I</tspan></text>
    </g>
    <g
       id="g3242"
       transform="matrix(0.35277777,0,0,-0.35277777,124.55056,119.22486)">
      <text
         transform="matrix(1,0,0,-1,99.11867,50.70032)"
         style="font-variant:normal;font-weight:normal;font-size:52px;font-family:STIXGeneral;-inkscape-font-specification:STIXGeneral-Regular;writing-mode:lr-tb;fill:#000000;fill-opacity:1;fill-rule:nonzero;stroke:none"
         id="text3246"><tspan
           x="0"
           y="0"
           id="tspan3244">)</tspan></text>
    </g>
    <g
       id="g3248"
       transform="matrix(0.35277777,0,0,-0.35277777,219.37052,67.677681)">
      <text
         transform="matrix(1,0,0,-1,0,50.70032)"
         style="font-variant:normal;font-weight:normal;font-size:52px;font-family:STIXGeneral;-inkscape-font-specification:STIXGeneral-Regular;writing-mode:lr-tb;fill:#000000;fill-opacity:1;fill-rule:nonzero;stroke:none"
         id="text3252"><tspan
           x="0"
           y="0"
           id="tspan3250">(</tspan></text>
    </g>
    <g
       id="g3254"
       transform="matrix(0.35277777,0,0,-0.35277777,219.37052,67.677681)">
      <text
         transform="matrix(1,0,0,-1,17.316,50.70032)"
         style="font-variant:normal;font-weight:normal;font-size:52px;font-family:STIXGeneral;-inkscape-font-specification:STIXGeneral-Regular;writing-mode:lr-tb;fill:#000000;fill-opacity:1;fill-rule:nonzero;stroke:none"
         id="text3258"><tspan
           x="0"
           y="0"
           id="tspan3256">Φ</tspan></text>
    </g>
    <g
       id="g3260"
       transform="matrix(0.35277777,0,0,-0.35277777,219.37052,67.677681)">
      <text
         transform="matrix(1,0,0,-1,56.992,50.70032)"
         style="font-variant:normal;font-weight:normal;font-size:52px;font-family:STIXGeneral;-inkscape-font-specification:STIXGeneral-Regular;writing-mode:lr-tb;fill:#000000;fill-opacity:1;fill-rule:nonzero;stroke:none"
         id="text3264"><tspan
           x="0"
           y="0"
           id="tspan3262">,</tspan></text>
    </g>
    <g
       id="g3266"
       transform="matrix(0.35277777,0,0,-0.35277777,219.37052,67.677681)">
      <text
         transform="matrix(1,0,0,-1,78.65867,50.70032)"
         style="font-style:italic;font-variant:normal;font-size:52px;font-family:STIXGeneral;-inkscape-font-specification:STIXGeneral-Italic;writing-mode:lr-tb;fill:#000000;fill-opacity:1;fill-rule:nonzero;stroke:none"
         id="text3270"><tspan
           x="0"
           y="0"
           id="tspan3268">R</tspan></text>
    </g>
    <g
       id="g3272"
       transform="matrix(0.35277777,0,0,-0.35277777,219.37052,67.677681)">
      <text
         transform="matrix(1,0,0,-1,110.4307,50.70032)"
         style="font-variant:normal;font-weight:normal;font-size:52px;font-family:STIXGeneral;-inkscape-font-specification:STIXGeneral-Regular;writing-mode:lr-tb;fill:#000000;fill-opacity:1;fill-rule:nonzero;stroke:none"
         id="text3276"><tspan
           x="0"
           y="0"
           id="tspan3274">)</tspan></text>
    </g>
    <g
       id="g3278"
       transform="matrix(0.35277777,0,0,-0.35277777,219.37052,169.98322)">
      <text
         transform="matrix(1,0,0,-1,0,50.70032)"
         style="font-variant:normal;font-weight:normal;font-size:52px;font-family:STIXGeneral;-inkscape-font-specification:STIXGeneral-Regular;writing-mode:lr-tb;fill:#000000;fill-opacity:1;fill-rule:nonzero;stroke:none"
         id="text3282"><tspan
           x="0"
           y="0"
           id="tspan3280">(</tspan></text>
    </g>
    <g
       id="g3284"
       transform="matrix(0.35277777,0,0,-0.35277777,219.37052,169.98322)">
      <text
         transform="matrix(1,0,0,-1,17.316,50.70032)"
         style="font-variant:normal;font-weight:normal;font-size:52px;font-family:STIXGeneral;-inkscape-font-specification:STIXGeneral-Regular;writing-mode:lr-tb;fill:#000000;fill-opacity:1;fill-rule:nonzero;stroke:none"
         id="text3288"><tspan
           x="0"
           y="0"
           id="tspan3286">Φ</tspan></text>
    </g>
    <g
       id="g3290"
       transform="matrix(0.35277777,0,0,-0.35277777,219.37052,169.98322)">
      <text
         transform="matrix(1,0,0,-1,56.992,50.70032)"
         style="font-variant:normal;font-weight:normal;font-size:52px;font-family:STIXGeneral;-inkscape-font-specification:STIXGeneral-Regular;writing-mode:lr-tb;fill:#000000;fill-opacity:1;fill-rule:nonzero;stroke:none"
         id="text3294"><tspan
           x="0"
           y="0"
           id="tspan3292">,</tspan></text>
    </g>
    <g
       id="g3296"
       transform="matrix(0.35277777,0,0,-0.35277777,219.37052,169.98322)">
      <text
         transform="matrix(1,0,0,-1,78.65867,50.70032)"
         style="font-style:italic;font-variant:normal;font-size:52px;font-family:STIXGeneral;-inkscape-font-specification:STIXGeneral-Italic;writing-mode:lr-tb;fill:#000000;fill-opacity:1;fill-rule:nonzero;stroke:none"
         id="text3300"><tspan
           x="0"
           y="0"
           id="tspan3298">T</tspan></text>
    </g>
    <g
       id="g3302"
       transform="matrix(0.35277777,0,0,-0.35277777,219.37052,169.98322)">
      <text
         transform="matrix(1,0,0,-1,112.0667,50.70032)"
         style="font-variant:normal;font-weight:normal;font-size:52px;font-family:STIXGeneral;-inkscape-font-specification:STIXGeneral-Regular;writing-mode:lr-tb;fill:#000000;fill-opacity:1;fill-rule:nonzero;stroke:none"
         id="text3306"><tspan
           x="0"
           y="0"
           id="tspan3304">)</tspan></text>
    </g>
    <g
       id="g3308"
       transform="matrix(0.35277777,0,0,-0.35277777,318.75825,119.35529)">
      <text
         transform="matrix(1,0,0,-1,0,50.70032)"
         style="font-variant:normal;font-weight:normal;font-size:52px;font-family:STIXGeneral;-inkscape-font-specification:STIXGeneral-Regular;writing-mode:lr-tb;fill:#000000;fill-opacity:1;fill-rule:nonzero;stroke:none"
         id="text3312"><tspan
           x="0"
           y="0"
           id="tspan3310">(</tspan></text>
    </g>
    <g
       id="g3314"
       transform="matrix(0.35277777,0,0,-0.35277777,318.75825,119.35529)">
      <text
         transform="matrix(1,0,0,-1,17.316,50.70032)"
         style="font-variant:normal;font-weight:normal;font-size:52px;font-family:STIXGeneral;-inkscape-font-specification:STIXGeneral-Regular;writing-mode:lr-tb;fill:#000000;fill-opacity:1;fill-rule:nonzero;stroke:none"
         id="text3318"><tspan
           x="0"
           y="0"
           id="tspan3316">ℝ</tspan></text>
    </g>
    <g
       id="g3320"
       transform="matrix(0.35277777,0,0,-0.35277777,318.75825,105.7804)">
      <text
         transform="matrix(1,0,0,-1,56.16,31.46032)"
         style="font-style:italic;font-variant:normal;font-size:36.92px;font-family:STIXGeneral;-inkscape-font-specification:STIXGeneral-Italic;writing-mode:lr-tb;fill:#000000;fill-opacity:1;fill-rule:nonzero;stroke:none"
         id="text3324"><tspan
           x="0"
           y="0"
           id="tspan3322">n</tspan></text>
    </g>
    <g
       id="g3326"
       transform="matrix(0.35277777,0,0,-0.35277777,318.75825,119.35529)">
      <text
         transform="matrix(1,0,0,-1,74.62,50.70032)"
         style="font-variant:normal;font-weight:normal;font-size:52px;font-family:STIXGeneral;-inkscape-font-specification:STIXGeneral-Regular;writing-mode:lr-tb;fill:#000000;fill-opacity:1;fill-rule:nonzero;stroke:none"
         id="text3330"><tspan
           x="0"
           y="0"
           id="tspan3328">,</tspan></text>
    </g>
    <g
       id="g3332"
       transform="matrix(0.35277777,0,0,-0.35277777,318.75825,119.35529)">
      <text
         transform="matrix(1,0,0,-1,96.28667,50.70032)"
         style="font-variant:normal;font-weight:normal;font-size:52px;font-family:STIXGeneral;-inkscape-font-specification:STIXGeneral-Regular;writing-mode:lr-tb;fill:#000000;fill-opacity:1;fill-rule:nonzero;stroke:none"
         id="text3336"><tspan
           x="0"
           y="0"
           id="tspan3334">{</tspan></text>
    </g>
    <g
       id="g3338"
       transform="matrix(0.35277777,0,0,-0.35277777,318.75825,119.35529)">
      <text
         transform="matrix(1,0,0,-1,121.2467,50.70032)"
         style="font-style:italic;font-variant:normal;font-size:52px;font-family:STIXGeneral;-inkscape-font-specification:STIXGeneral-Italic;writing-mode:lr-tb;fill:#000000;fill-opacity:1;fill-rule:nonzero;stroke:none"
         id="text3342"><tspan
           x="0"
           y="0"
           id="tspan3340">i</tspan></text>
    </g>
    <g
       id="g3344"
       transform="matrix(0.35277777,0,0,-0.35277777,318.75825,119.35529)">
      <text
         transform="matrix(1,0,0,-1,135.7027,50.70032)"
         style="font-style:italic;font-variant:normal;font-size:52px;font-family:STIXGeneral;-inkscape-font-specification:STIXGeneral-Italic;writing-mode:lr-tb;fill:#000000;fill-opacity:1;fill-rule:nonzero;stroke:none"
         id="text3348"><tspan
           x="0"
           y="0"
           id="tspan3346">d</tspan></text>
    </g>
    <g
       id="g3350"
       transform="matrix(0.35277777,0,0,-0.35277777,318.75825,119.35529)">
      <text
         transform="matrix(1,0,0,-1,161.7027,50.70032)"
         style="font-variant:normal;font-weight:normal;font-size:52px;font-family:STIXGeneral;-inkscape-font-specification:STIXGeneral-Regular;writing-mode:lr-tb;fill:#000000;fill-opacity:1;fill-rule:nonzero;stroke:none"
         id="text3354"><tspan
           x="0"
           y="0"
           id="tspan3352">}</tspan></text>
    </g>
    <g
       id="g3356"
       transform="matrix(0.35277777,0,0,-0.35277777,318.75825,119.35529)">
      <text
         transform="matrix(1,0,0,-1,186.6627,50.70032)"
         style="font-variant:normal;font-weight:normal;font-size:52px;font-family:STIXGeneral;-inkscape-font-specification:STIXGeneral-Regular;writing-mode:lr-tb;fill:#000000;fill-opacity:1;fill-rule:nonzero;stroke:none"
         id="text3360"><tspan
           x="0"
           y="0"
           id="tspan3358">)</tspan></text>
    </g>
    <g
       id="g3362"
       transform="matrix(0.35277777,0,0,0.35277777,159.80964,53.057018)">
      <path
         d="M 0,101.71 176.1974,7.897526 177.9666,6.95526"
         style="fill:none;stroke:#000000;stroke-width:4;stroke-linecap:butt;stroke-linejoin:miter;stroke-miterlimit:4;stroke-dasharray:none;stroke-opacity:1"
         id="path3364"
         inkscape:connector-curvature="0" />
    </g>
    <path
       d="m 223.36185,58.457975 3.83892,-5.400957 -6.6241,0.169545 z"
       style="fill:#000000;fill-opacity:1;fill-rule:nonzero;stroke:none;stroke-width:0.352778"
       id="path3366"
       inkscape:connector-curvature="0" />
    <g
       id="g3368"
       transform="matrix(0.35277777,0,0,0.35277777,160.08269,104.60424)">
      <path
         d="m 0,0 175.4071,91.68926 1.7763,0.92885"
         style="fill:none;stroke:#000000;stroke-width:4;stroke-linecap:butt;stroke-linejoin:miter;stroke-miterlimit:4;stroke-dasharray:none;stroke-opacity:1"
         id="path3370"
         inkscape:connector-curvature="0" />
    </g>
    <path
       d="m 220.59113,139.57721 6.62517,0.11921 -3.87985,-5.37165 z"
       style="fill:#000000;fill-opacity:1;fill-rule:nonzero;stroke:none;stroke-width:0.352778"
       id="path3372"
       inkscape:connector-curvature="0" />
    <g
       id="g3374"
       transform="matrix(0.35277777,0,0,0.35277777,164.76405,96.780718)">
      <path
         d="m 0,0 422.2153,0.2052244 2,9.721e-4"
         style="fill:none;stroke:#000000;stroke-width:4;stroke-linecap:butt;stroke-linejoin:miter;stroke-miterlimit:4;stroke-dasharray:none;stroke-opacity:1"
         id="path3376"
         inkscape:connector-curvature="0" />
    </g>
    <path
       d="m 313.7107,99.816441 5.92808,-2.96044 -5.92525,-2.966226 -0.004,5.926666 z"
       style="fill:#000000;fill-opacity:1;fill-rule:nonzero;stroke:none;stroke-width:0.352778"
       id="path3378"
       inkscape:connector-curvature="0" />
    <g
       id="g3380"
       transform="matrix(0.35277777,0,0,0.35277777,259.60447,104.80804)">
      <path
         d="M 0,98.89624 204.3982,6.897227 206.2259,6.074114"
         style="fill:none;stroke:#000000;stroke-width:4;stroke-linecap:butt;stroke-linejoin:miter;stroke-miterlimit:4;stroke-dasharray:none;stroke-opacity:1"
         id="path3382"
         inkscape:connector-curvature="0" />
    </g>
    <path
       d="m 332.92898,109.94268 4.18853,-5.13464 -6.62058,-0.26988 z"
       style="fill:#000000;fill-opacity:1;fill-rule:nonzero;stroke:none;stroke-width:0.352778"
       id="path3384"
       inkscape:connector-curvature="0" />
    <g
       id="g3386"
       transform="matrix(0.35277777,0,0,0.35277777,259.02521,53.057018)">
      <path
         d="M 208.7415,95.55048 206.923,94.71811 0,0"
         style="fill:none;stroke:#000000;stroke-width:4;stroke-linecap:butt;stroke-linejoin:miter;stroke-miterlimit:4;stroke-dasharray:none;stroke-opacity:1"
         id="path3388"
         inkscape:connector-curvature="0" />
    </g>
    <path
       d="m 330.78973,89.165975 6.62235,-0.227895 -4.15572,-5.161103 z"
       style="fill:#000000;fill-opacity:1;fill-rule:nonzero;stroke:none;stroke-width:0.352778"
       id="path3390"
       inkscape:connector-curvature="0" />
  </g>
</svg>
